<svg id="Capa_1" data-name="Capa 1" xmlns="http://www.w3.org/2000/svg" xmlns:xlink="http://www.w3.org/1999/xlink" viewBox="0 0 367.66 349.53"><defs><style>.cls-1{fill:url(#Degradado_sin_nombre_24);}.cls-2{fill:url(#Degradado_sin_nombre_5);}.cls-3{fill:url(#Degradado_sin_nombre_5-2);}.cls-4{fill:url(#Degradado_sin_nombre_11);}</style><linearGradient id="Degradado_sin_nombre_24" x1="155.25" y1="362.32" x2="405.18" y2="263.47" gradientTransform="translate(6.48 -5.13) rotate(1.53)" gradientUnits="userSpaceOnUse"><stop offset="0" stop-color="#a5669d"/><stop offset="0.76" stop-color="#001d7e"/></linearGradient><linearGradient id="Degradado_sin_nombre_5" x1="457.81" y1="161.58" x2="392.09" y2="234.55" gradientTransform="translate(6.48 -5.13) rotate(1.53)" gradientUnits="userSpaceOnUse"><stop offset="0" stop-color="#009bdb"/><stop offset="1" stop-color="#001d7e"/></linearGradient><linearGradient id="Degradado_sin_nombre_5-2" x1="189.15" y1="147.42" x2="378.64" y2="147.42" xlink:href="#Degradado_sin_nombre_5"/><linearGradient id="Degradado_sin_nombre_11" x1="358.38" y1="518.23" x2="342.95" y2="201.08" gradientTransform="translate(6.48 -5.13) rotate(1.53)" gradientUnits="userSpaceOnUse"><stop offset="0.02" stop-color="#c178a6"/><stop offset="1" stop-color="#001d7e"/></linearGradient></defs><title>ES_1</title><path class="cls-1" d="M391.18,339.76a244.29,244.29,0,0,1-38.46-19.3c-1.71-3.06-5.26-3.9-8.06-5.63a2.86,2.86,0,0,0-2.6-.64c-.54-1.26-1.76-1.88-2.94-2.53-3.27-1.55-6.34-3.41-9.42-5.24-1.27-.75-2.48-1.83-4.17-1.59a26.8,26.8,0,0,0-11.11-6.55c-.1.06-.19.09-.29.14s0-.16,0-.24l-1.5-.55c0-.16-.08-.33-.11-.5-1.3-1.32-2.55-2.74-4.75-2.27-1.66-3.06-5.22-3.57-8-5.09-4.22-2.14-8.56-4.06-12.88-6-1.13-.51-2.23-1.31-3.59-.76a1.6,1.6,0,0,0-.44-.63c-5.65-2.87-11.89-4.4-17.83-6.61-2.15-.54-4.17-1.54-6.47-1.58l-.36.06a3.23,3.23,0,0,0-1.37-.61,102.67,102.67,0,0,0-13.25-2.82c-2.46-.23-4.84-1.06-7.37-.83l-.68-.17c-.68-.58-1.76-.45-2.71-.56-5.16.11-10.17-1.6-15.36-1.14a177.57,177.57,0,0,0-21.52,1.27c-2.56.36-5.21.55-7.47,1.93a105,105,0,0,0-19.15,21.9h0a98.65,98.65,0,0,0-12,17.52h0A132.38,132.38,0,0,0,146.55,330h0c-4.05,8.21-6.5,16.88-9.21,25.54-1.68,5.37-.74,11.76-.67,12.4a7.91,7.91,0,0,0,3.59,6,9.1,9.1,0,0,0,3.25,1.3,53.32,53.32,0,0,0,12.68,1.08,150.07,150.07,0,0,0,21.77-2.7c17.89-3.27,35.17-8.52,52.49-13.63,17.71-5.22,35.3-10.76,53.27-15.23,9.34-2.33,30.52-5.95,31.62-6,7.75-.42,15.5-.95,23.26-1.12a238.28,238.28,0,0,1,48.87,4.16c6,1.11,12,2.5,18,3.76Z" transform="translate(-136.35 -26.82)"/><path class="cls-2" d="M473.18,280.35h0l-17.79-26.19h0c-6-9.51-19.23-31.28-20-32.6-4.35-7.72-8.8-15.4-13.22-23.08-2.33-4.56-4.71-9.09-7-13.67-4.11-8.29-8.16-16.61-12.23-24.91.05-.69-8.2-19.11-11.69-27.83-3.84-9.62-7.5-19.31-11.24-29,.19,2,.31,4,.57,6,.89,6.7,1.47,13.39.26,20.1a4.79,4.79,0,0,0-1.16,2.88,64.33,64.33,0,0,1-2.63,11.07,40,40,0,0,1-2.74,7.18,38.25,38.25,0,0,1-2.85,6c-.6,1.12-2.58,5.23-3.34,6.18-.59,1.88-2.42,3.25-2.56,5.3h0a2.42,2.42,0,0,0-1.89,1c-1.62,2.9-4.63,5-5.77,8.15-2,.07-2.11,2.16-3.32,3.07-1.15,1.73-3.17,2.89-3.82,4.95a.43.43,0,0,1,0,.05c-2.64.71-10.22,7.59-10.74,9.86l12.25,7.9,11.6,6.66,24,12.14h0l3.15,1.93c6.57,2.81,12.89,6,19.11,9.46a219,219,0,0,1,19.19,10.74c0,.12.05.25.07.38a14,14,0,0,0,6.63,4.69c.62.36,1.26.68,1.84,1.08,5.6,3.75,7.93,9.87,13.15,14,6.4,6.3,10.72,13.74,16.68,20.39.34.63,2.85,2.26,3.19,2.89,1.74,2.35,5.64,1.26,7.27,3.7.94,1.42,1.53,3.49,3.95,3.71C479.5,289.66,476.29,285,473.18,280.35Z" transform="translate(-136.35 -26.82)"/><path class="cls-3" d="M380.06,103.1Q377.89,97,375.69,91a1.46,1.46,0,0,0-.3-.84c-5.09-16.67-10.5-33.24-19-48.8a43.86,43.86,0,0,0-8.1-11.3c-4.31-4.06-8.2-4.28-12.92-.74-.88.66-1.73,1.38-2.54,2.12-8.78,8-139.5,235.53-144.43,240s142.13-40.68,142.13-40.68,8.27-36.34,8.16-35.32l1.35-.51A120.05,120.05,0,0,1,351.1,185c1.16-1.63,3.25-2.61,3.8-4.67h0c1.67-.63,1.85-2.59,3.43-3.31,1.82-2.71,4.51-4.86,5.89-7.85.45-.35,4-4.25,4.46-6.28h0c.73-.94,5.08-9.2,6.53-12.39a54,54,0,0,0,2.56-6.9h0a63.87,63.87,0,0,0,3.8-13.83C381.83,129.52,382.07,110.31,380.06,103.1Z" transform="translate(-136.35 -26.82)"/><path class="cls-4" d="M500.93,332.6c-4.58-13.37-11.26-25.87-18.78-38-2-1.36-26.78-31.6-36.16-39.55-3.26-2.76-17.59-13.1-18.77-13.73-4.34-2.3-8.52-4.84-12.83-7.21-1.3-.71-15.27-7.94-20.12-10.11-.88-.4-19.91-10.08-26.73-13.81-.88-.48-15.41-8.37-15.77-8.59-3.91-2.3-7.47-5.08-11.63-7-.64-.09-1.09.35-1.59.7-2,2.78-16.33,11.9-17.09,12.38-3.68,2.34-7.34,4.68-11.06,7-4.74,2.92-15.61,8.71-16.07,9-6.85,3.79-14.1,6.84-21.32,9.95-1.32.56-5.68,2.62-6.63,3-5.86,2.33-11.66,4.77-17.63,6.87a82.62,82.62,0,0,1-8.89,3.72l-.33.09c-5.47,1.6-10.68,3.81-15.94,5.9-.56.22-5.46,2.2-6.29,2.52-4.21,1.63-8.27,3.54-12.41,5.29-3,1.45-6.26,2.45-8.76,4.67l-2.75,2a16.37,16.37,0,0,0-5,3.86,14.42,14.42,0,0,0,2.18-.12c8.85-1.75,17.87-1.87,26.86-2.23h0l15.76,1.11-.08-.05c1,.15,7.87,1.35,10.37,1.49h0l13.14,2.8h0c.62.09,6,1.49,8.07,2.09h0l18,6.39h0l.61.25,16.06,7.32h0c2.76,1.35,13.82,8.1,14.62,7.88a0,0,0,0,1,0,0c0,.1,0,.2.2.28a84.31,84.31,0,0,1,11,6.25c4.77,2.05,13.56,7.35,13.56,7.35,1,.69,15.5,10.27,16.63,10.91,15.91,9,32.23,17.18,50.1,22.4l9.17,2.66c2,.59,3.94,1.23,5.93,1.78,20.09,5.5,40.37,10.09,61.44,10.52,5.31.11,10.64-.11,15.64-2.09a9.13,9.13,0,0,0,6.25-8.24C504.44,344.1,502.89,338.32,500.93,332.6Z" transform="translate(-136.35 -26.82)"/></svg>