<svg id="Capa_1" data-name="Capa 1" xmlns="http://www.w3.org/2000/svg" viewBox="0 0 566.26 95.82"><defs><style>.cls-1{fill:#fff;}</style></defs><title>ET_BLANCO</title><path class="cls-1" d="M210.41-88.92H176.77v31.58h40.61V-48H164.22v-88.25h52.46v9.39H176.77V-98.3h33.64Z" transform="translate(-164.22 142.62)"/><path class="cls-1" d="M263.64-103l-6.66-.36a15.88,15.88,0,0,0-8.67,2.24,14.68,14.68,0,0,0-5.44,6.31V-48h-13v-65.58h11.6l.69,9.68a25.25,25.25,0,0,1,8.05-8,18.61,18.61,0,0,1,10.25-2.84,17.59,17.59,0,0,1,2.77.21,19.89,19.89,0,0,1,2.18.45Z" transform="translate(-164.22 142.62)"/><path class="cls-1" d="M289.16-120h-13v-12.19h13Zm0,72.05h-13v-65.58h13Z" transform="translate(-164.22 142.62)"/><path class="cls-1" d="M332-56.13a16.05,16.05,0,0,0,10.49-3.67,11.2,11.2,0,0,0,4.48-9h11.74l.2.36q.26,8.49-7.92,15.07a29.43,29.43,0,0,1-19,6.57q-15,0-23.21-9.39t-8.18-23.4v-2.54q0-13.89,8.21-23.31T332-114.86q11.94,0,19.55,6.79A20.68,20.68,0,0,1,359-91.41l-.13.37H347a13.88,13.88,0,0,0-4.25-10.22A14.65,14.65,0,0,0,332-105.47q-9.56,0-13.94,6.82t-4.39,16.52v2.54q0,9.89,4.32,16.67T332-56.13Z" transform="translate(-164.22 142.62)"/><path class="cls-1" d="M389.28-78.31h-5.69v30.24h-13v-94.55h13v54.79h5.56l21.43-25.82h15.56L400.22-83.41l28.16,35.34H413Z" transform="translate(-164.22 142.62)"/><path class="cls-1" d="M524.41-76.31l.13.36a26.26,26.26,0,0,1-8.94,20.79q-9.17,8.35-24.24,8.36-15.32,0-25-10.6t-9.65-26.91V-100q0-16.3,9.65-26.94t25-10.64q15.31,0,24.37,8t8.81,21.12l-.13.37H512.69q0-9.28-5.58-14.67t-15.75-5.4a19.38,19.38,0,0,0-16.31,8.07q-6.09,8.05-6.08,20v15.82q0,12.06,6.08,20.12a19.39,19.39,0,0,0,16.31,8.06q10.17,0,15.75-5.37t5.58-14.81Z" transform="translate(-164.22 142.62)"/><path class="cls-1" d="M649.5-48.07c-.44-2-.79-3.73-1-5.24a35.12,35.12,0,0,1-.42-4.58A29.59,29.59,0,0,1,638.58-50,25.85,25.85,0,0,1,626-46.8q-11.14,0-17-5.24T603.2-66.5q0-9.39,8.28-14.69t22.45-5.31h14.12V-93a11.52,11.52,0,0,0-3.83-9.12q-3.83-3.37-10.81-3.37c-4.23,0-7.63,1-10.23,2.91s-3.89,4.27-3.89,7L607-95.47l-.13-.36q-.47-7.15,7.29-13.09t20-5.94q12.14,0,19.52,5.66T661-92.86v31.58a57.24,57.24,0,0,0,.39,6.78,33.05,33.05,0,0,0,1.45,6.43ZM627.93-56.8a24.66,24.66,0,0,0,12.73-3.33q5.67-3.33,7.39-7.64V-78.44H633.47q-7.85,0-12.56,3.64c-3.14,2.43-4.72,5.27-4.72,8.55a8.63,8.63,0,0,0,3,6.91Q622.13-56.8,627.93-56.8Z" transform="translate(-164.22 142.62)"/><path class="cls-1" d="M684.18-110.46l.83,8.35c2.37-3.33,5.45-4.92,9-6.76a26.54,26.54,0,0,1,12.24-2.75q11.54,0,17.87,6t6.33,18.38v39.68h-13V-87q0-8.31-3.73-11.8c-2.48-2.32-6.28-3.48-11.37-3.48a22.38,22.38,0,0,0-10.19,2.12,16.53,16.53,0,0,0-6.63,5.95v46.65h-13v-62.85Z" transform="translate(-164.22 142.62)"/><path class="cls-1" d="M587.11-105.78q-6.37-6-17.78-6a27.67,27.67,0,0,0-11.9,2.52c-3.58,1.67-6.6,2.88-9.07,5.89v-31.35l.08-7.89H535.35l0,7.89v86.66h13V-95a17.69,17.69,0,0,1,6.93-5.58,23.68,23.68,0,0,1,10.09-2q7.51,0,11.31,3.7t3.79,11.45v39.32h13v-39.2Q593.47-99.76,587.11-105.78Z" transform="translate(-164.22 142.62)"/></svg>